<?xml version="1.0" encoding="utf-8"?>
<!-- Generator: Adobe Illustrator 26.2.1, SVG Export Plug-In . SVG Version: 6.00 Build 0)  -->
<svg version="1.1" id="Layer_1" xmlns="http://www.w3.org/2000/svg" xmlns:xlink="http://www.w3.org/1999/xlink" x="0px" y="0px"
	 viewBox="0 0 167 128" style="enable-background:new 0 0 167 128;" xml:space="preserve">
<style type="text/css">
	.st0{fill:#FFFFFF;}
</style>
<path class="st0" d="M55.9,4c-2.1-2.4-5.3-3.7-9.5-3.7H34.1L7.2,127.4h9.2l6.5-30.8h4c9,0,15.1-5.8,17.4-16.1l13.4-63.6
	C59,11.1,58.3,6.8,55.9,4z M48.9,16.2L35.5,79.8c-1.6,7.1-4.8,8.1-7.4,8.1h-3.4L41.4,8.8h3.9c1.4,0,2.6,0.3,3.1,1
	C49.4,10.8,49.4,13,48.9,16.2z"/>
<path class="st0" d="M81.8,0.2L81.8,0.2l-9.1,0L34.5,127.3h9.2l5.7-18.7h10.1l-2.2,18.7h9.2L82.2,0.2H81.8z M60.6,100.1h-8.5
	l20.6-77.4L60.6,100.1z"/>
<polygon class="st0" points="156.4,0.2 132.4,59.7 145,0.2 135.8,0.2 108.9,127.3 118.1,127.3 132.2,60.7 132.2,127.3 141.5,127.3 
	141.5,59.9 166.4,0.2 156.4,0.2 "/>
<path class="st0" d="M-58.7,132.4"/>
<path class="st0" d="M121.5,4c-2.1-2.4-5.3-3.7-9.5-3.7H99.7L72.8,127.4H82l6.5-30.8h4c0.4,0,0.8,0,1.2,0v30.8h9.3V93
	c3.3-2.7,5.6-7,6.9-12.5l13.4-63.6C124.6,11.1,123.9,6.8,121.5,4z M114.5,16.2l-13.4,63.6c-1.6,7.1-4.8,8.1-7.4,8.1h-3.4L107,8.8
	h3.9c1.4,0,2.6,0.3,3.1,1C115,10.8,115,13,114.5,16.2z"/>
</svg>
